<?xml version="1.0" encoding="utf-8"?>
<!-- Generator: Adobe Illustrator 26.3.1, SVG Export Plug-In . SVG Version: 6.00 Build 0)  -->
<svg version="1.1" id="Layer_1" xmlns="http://www.w3.org/2000/svg" xmlns:xlink="http://www.w3.org/1999/xlink" x="0px" y="0px"
	 viewBox="0 0 96 96" style="enable-background:new 0 0 96 96;" xml:space="preserve">
<style type="text/css">
	.st0{fill:#FF90E8;stroke:#000000;stroke-width:1.5625;}
</style>
<g>
	<path d="M53.1,84.6c18,0,32.7-14.1,32.7-31.5S71.2,21.6,53.1,21.6S20.4,35.7,20.4,53.1S35.1,84.6,53.1,84.6z"/>
	<path class="st0" d="M44.7,78c19,0,34.5-14.9,34.5-33.3c0-18.5-15.5-33.3-34.5-33.3c-19,0-34.5,14.9-34.5,33.3
		C10.2,63.2,25.7,78,44.7,78z"/>
	<path d="M42.1,61.5c-9.6,0-15.3-7.8-15.3-17.5c0-10.1,6.2-18.3,18.2-18.3c12.3,0,16.5,8.4,16.6,13.1h-8.9c-0.2-2.7-2.5-6.7-7.9-6.7
		c-5.9,0-9.6,5.1-9.6,11.4s3.8,11.4,9.6,11.4c5.3,0,7.6-4.2,8.5-8.4h-8.5v-3.4h17.9v17.5h-7.8v-11C54.2,53.7,51.7,61.5,42.1,61.5z"
		/>
</g>
</svg>
