<?xml version="1.0" encoding="utf-8"?>
<!-- Generator: Adobe Illustrator 25.2.0, SVG Export Plug-In . SVG Version: 6.00 Build 0)  -->
<svg version="1.1" xmlns="http://www.w3.org/2000/svg" xmlns:xlink="http://www.w3.org/1999/xlink" x="0px" y="0px"
	 viewBox="0 0 144 144" style="enable-background:new 0 0 144 144;" xml:space="preserve">
<style type="text/css">
	.st0{fill:#333333;}
	.st1{fill:#FFFFFF;}
	.st2{fill:none;stroke:#333333;stroke-width:10;stroke-miterlimit:10;}
	.st3{fill:#FFFFFF;stroke:#333333;stroke-width:10;stroke-miterlimit:10;}
	.st4{fill:none;stroke:#333333;stroke-width:8;stroke-linecap:round;stroke-miterlimit:10;}
	.st5{fill:#FFFFFF;stroke:#333333;stroke-width:4;stroke-miterlimit:10;}
	.st6{fill:none;stroke:#333333;stroke-width:6;stroke-linecap:square;stroke-miterlimit:10;}
	.st7{fill:none;stroke:#333333;stroke-width:4;stroke-linecap:square;stroke-miterlimit:10;}
	.st8{fill:#FFFFFF;stroke:#333333;stroke-width:6;stroke-miterlimit:10;}
	.st9{fill:none;stroke:#333333;stroke-width:4;stroke-linecap:round;stroke-miterlimit:10;}
	.st10{display:none;}
	.st11{display:inline;}
</style>
<g id="Layer_1">
	<polygon class="st6" points="135,126 9,126 9,45 54,45 63,36 63,27 108,27 108,36 117,45 135,45 	"/>
	<polyline class="st7" points="18,45 18,36 45,36 45,45 	"/>
	<g>
		<circle class="st8" cx="85.5" cy="85.5" r="31.5"/>
		<path class="st0" d="M101.25,96c-8.7,0-15.75-7.05-15.75-15.75c0-6.07,3.44-11.33,8.47-13.96c-2.59-1.14-5.45-1.79-8.47-1.79
			c-11.6,0-21,9.4-21,21c0,11.6,9.4,21,21,21c7.86,0,14.71-4.33,18.3-10.73C102.97,95.91,102.12,96,101.25,96z"/>
	</g>
	<line class="st9" x1="72" y1="36" x2="99" y2="36"/>
	<line class="st9" x1="45" y1="63" x2="45" y2="117"/>
</g>
<g id="eye" class="st10">
</g>
</svg>
