<?xml version="1.0" encoding="utf-8"?>
<!-- Generator: Adobe Illustrator 26.3.1, SVG Export Plug-In . SVG Version: 6.00 Build 0)  -->
<svg version="1.1" id="Layer_1" xmlns="http://www.w3.org/2000/svg" xmlns:xlink="http://www.w3.org/1999/xlink" x="0px" y="0px"
	 viewBox="0 0 96 96" style="enable-background:new 0 0 96 96;" xml:space="preserve">
<style type="text/css">
	.st0{fill:#FF90E8;stroke:#000000;stroke-width:1.5625;}
</style>
<g>
	<path d="M54,90.6c21,0,38-16.4,38-36.7s-17-36.7-38-36.7s-38,16.4-38,36.7S33,90.6,54,90.6z"/>
	<path class="st0" d="M44.1,82.9c22.1,0,40.1-17.3,40.1-38.8c0-21.5-18-38.8-40.1-38.8C22.1,5.4,4,22.7,4,44.2
		C4,65.6,22.1,82.9,44.1,82.9z"/>
	<path d="M41.1,63.7c-11.2,0-17.8-9.1-17.8-20.3c0-11.7,7.3-21.2,21.1-21.2c14.3,0,19.1,9.7,19.4,15.3H53.4
		c-0.2-3.1-2.9-7.7-9.2-7.7c-6.8,0-11.2,6-11.2,13.3s4.4,13.3,11.2,13.3c6.2,0,8.8-4.9,9.9-9.7h-9.9v-4H65v20.3h-9.1V50
		C55.2,54.7,52.3,63.7,41.1,63.7z"/>
</g>
</svg>
